<svg width="40" height="41" viewBox="0 0 40 41" fill="none" xmlns="http://www.w3.org/2000/svg">
<path fill-rule="evenodd" clip-rule="evenodd" d="M0 20.3151C0 9.26987 8.95425 0.31543 19.9997 0.31543C31.0451 0.31543 39.9997 9.26987 40 20.3151C40 31.3603 31.0451 40.3154 19.9997 40.3154C8.95425 40.3154 0 31.36 0 20.3151ZM27.6432 14.0035C28.4731 13.8997 29.2639 13.6696 30 13.3277C29.45 14.1878 28.7539 14.9433 27.9516 15.5491C27.9593 15.7334 27.9632 15.9184 27.9632 16.1043C27.9632 21.7758 23.8372 28.3154 16.2898 28.3154C13.9722 28.3154 11.8161 27.605 10 26.3877C10.3215 26.4279 10.6484 26.448 10.9792 26.448C12.9022 26.448 14.6714 25.7617 16.0752 24.6103C14.2798 24.5757 12.7645 23.3343 12.2422 21.6294C12.4922 21.6784 12.7499 21.7058 13.0137 21.7058C13.3883 21.7058 13.7514 21.6535 14.0952 21.5553C12.2176 21.1619 10.8038 19.4272 10.8038 17.3474V17.2935C11.3569 17.6145 11.9899 17.8076 12.6622 17.8301C11.5615 17.0609 10.8377 15.7471 10.8377 14.2586C10.8377 13.4709 11.04 12.7339 11.3923 12.0999C13.4168 14.6971 16.4398 16.406 19.8496 16.5846C19.7804 16.2717 19.7435 15.9434 19.7435 15.6071C19.7435 13.2376 21.5803 11.3154 23.8464 11.3154C25.0263 11.3154 26.0925 11.8368 26.8409 12.6711C27.7762 12.478 28.6547 12.1208 29.4469 11.6292C29.1408 12.6317 28.4908 13.4725 27.6432 14.0035Z" fill="white"/>
</svg>
