<svg width="40" height="41" viewBox="0 0 40 41" fill="none" xmlns="http://www.w3.org/2000/svg">
<path d="M19.9997 0.913086C8.95425 0.913086 0 9.86752 0 20.9127C0 31.9576 8.95425 40.9131 19.9997 40.9131C31.0451 40.9131 40 31.958 40 20.9127C39.9997 9.86752 31.0451 0.913086 19.9997 0.913086ZM26.8299 13.7064C26.8299 13.8973 26.6753 14.0522 26.4841 14.0522H21.6153V16.6689H26.4837C26.675 16.6689 26.8295 16.8239 26.8295 17.0148V21.8827C26.8295 22.074 26.675 22.2286 26.4837 22.2286H21.9611V32.9114C21.9611 33.1026 21.8065 33.2572 21.6153 33.2572H17.0142C16.823 33.2572 16.6684 33.1026 16.6684 32.9114V22.2289H13.5156C13.3243 22.2289 13.1698 22.0743 13.1698 21.8831V17.0151C13.1698 16.8242 13.3243 16.6693 13.5156 16.6693H16.6684V14.6954C16.6684 14.667 16.6719 14.6397 16.6781 14.6134C16.6808 11.8016 17.2822 8.58491 21.8889 8.57039C21.8989 8.56969 21.9096 8.569 21.92 8.569H26.4837C26.675 8.569 26.8295 8.72393 26.8295 8.91481V13.7064H26.8299Z" fill="white"/>
</svg>
