<svg width="40" height="41" viewBox="0 0 40 41" fill="none" xmlns="http://www.w3.org/2000/svg">
<path fill-rule="evenodd" clip-rule="evenodd" d="M20 40.9131C31.0457 40.9131 40 31.9588 40 20.9131C40 9.86739 31.0457 0.913086 20 0.913086C8.9543 0.913086 0 9.86739 0 20.9131C0 31.9588 8.9543 40.9131 20 40.9131ZM22.6438 22.6798C22.9932 22.1569 23.1797 21.5421 23.1797 20.9132C23.1787 20.0702 22.8434 19.262 22.2473 18.6659C21.6512 18.0698 20.8429 17.7344 19.9999 17.7335C19.371 17.7335 18.7562 17.92 18.2333 18.2694C17.7104 18.6188 17.3029 19.1154 17.0622 19.6964C16.8215 20.2774 16.7586 20.9168 16.8813 21.5336C17.004 22.1504 17.3068 22.717 17.7515 23.1616C18.1962 23.6063 18.7628 23.9092 19.3796 24.0319C19.9964 24.1546 20.6357 24.0916 21.2167 23.8509C21.7978 23.6103 22.2944 23.2027 22.6438 22.6798ZM29.9366 25.2854V16.5411C29.935 15.0658 29.3482 13.6514 28.305 12.6082C27.2618 11.565 25.8474 10.9782 24.3721 10.9765H15.6278C14.1525 10.9782 12.7381 11.565 11.6949 12.6082C10.6517 13.6514 10.0649 15.0658 10.0632 16.5411V25.2854C10.0649 26.7607 10.6517 28.1751 11.6949 29.2183C12.7381 30.2615 14.1525 30.8483 15.6278 30.8499H24.3721C25.8474 30.8483 27.2618 30.2615 28.305 29.2183C29.3482 28.1751 29.935 26.7607 29.9366 25.2854ZM23.9657 18.2634C24.4898 19.0477 24.7695 19.9699 24.7695 20.9132C24.7681 22.1778 24.2651 23.3901 23.371 24.2843C22.4768 25.1784 21.2645 25.6814 19.9999 25.6828C19.0566 25.6828 18.1344 25.4031 17.35 24.879C16.5657 24.3549 15.9544 23.61 15.5934 22.7385C15.2324 21.8669 15.1379 20.9079 15.3219 19.9827C15.506 19.0575 15.9602 18.2076 16.6273 17.5406C17.2943 16.8735 18.1442 16.4193 19.0694 16.2352C19.9946 16.0512 20.9536 16.1457 21.8252 16.5067C22.6967 16.8677 23.4416 17.479 23.9657 18.2634ZM26.1585 15.0837C26.2895 15.2798 26.3594 15.5103 26.3594 15.7461C26.3594 16.0624 26.2338 16.3657 26.0102 16.5893C25.7865 16.8129 25.4833 16.9385 25.167 16.9385C24.9312 16.9385 24.7006 16.8686 24.5045 16.7376C24.3085 16.6066 24.1556 16.4203 24.0654 16.2024C23.9751 15.9846 23.9515 15.7448 23.9975 15.5135C24.0435 15.2822 24.1571 15.0697 24.3238 14.903C24.4906 14.7362 24.7031 14.6226 24.9344 14.5766C25.1657 14.5306 25.4054 14.5542 25.6233 14.6445C25.8412 14.7347 26.0274 14.8876 26.1585 15.0837Z" fill="white"/>
</svg>
